STARTFONT 2.1
FONT -MIT-SUBSUB KST-Medium-R-Normal--14-5-200-200-P-7-ISO8859-1
SIZE 5 200 200
FONTBOUNDINGBOX 11 14 -3 -14
STARTPROPERTIES 17
ADD_STYLE_NAME ""
AVERAGE_WIDTH 7
CHARSET_ENCODING "1"
CHARSET_REGISTRY "ISO8859"
DEFAULT_CHAR 0
FAMILY "SUBSUB KST"
FONT_ASCENT 0
FONT_DESCENT 14
FOUNDRY "MIT"
PIXEL_SIZE 14
POINT_SIZE 5
RESOLUTION_X 200
RESOLUTION_Y 200
SETWIDTH_NAME "Normal"
SLANT "R"
SPACING "P"
WEIGHT_NAME "Medium"
ENDPROPERTIES
CHARS 121
STARTCHAR char1
ENCODING 1
SWIDTH 1200 0
DWIDTH 6 0
BBX 5 14 0 -14
BITMAP
20
20
20
20
20
20
20
20
A8
70
20
00
00
00
ENDCHAR
STARTCHAR char2
ENCODING 2
SWIDTH 2200 0
DWIDTH 11 0
BBX 10 14 0 -14
BITMAP
0000
0000
0000
00C0
0180
6180
7300
DF00
8600
DE40
73C0
0000
0000
0000
ENDCHAR
STARTCHAR char3
ENCODING 3
SWIDTH 2200 0
DWIDTH 11 0
BBX 9 14 0 -14
BITMAP
0000
0700
0D80
1980
1900
1300
3600
3300
6180
7180
5F00
C000
C000
0000
ENDCHAR
STARTCHAR char4
ENCODING 4
SWIDTH 1600 0
DWIDTH 8 0
BBX 7 14 0 -14
BITMAP
00
00
00
10
38
28
6C
44
C6
82
82
00
00
00
ENDCHAR
STARTCHAR char5
ENCODING 5
SWIDTH 1200 0
DWIDTH 6 0
BBX 5 14 0 -14
BITMAP
00
00
00
00
00
00
00
F8
08
08
00
00
00
00
ENDCHAR
STARTCHAR char6
ENCODING 6
SWIDTH 1200 0
DWIDTH 6 0
BBX 5 14 0 -14
BITMAP
00
00
38
60
C0
C0
F8
C0
C0
60
38
00
00
00
ENDCHAR
STARTCHAR char7
ENCODING 7
SWIDTH 1400 0
DWIDTH 7 0
BBX 6 14 0 -14
BITMAP
00
00
00
00
F8
4C
48
48
48
48
C8
0C
00
00
ENDCHAR
STARTCHAR char8
ENCODING 8
SWIDTH 1400 0
DWIDTH 7 0
BBX 6 14 0 -14
BITMAP
00
80
C0
60
20
30
30
70
58
C8
8C
00
00
00
ENDCHAR
STARTCHAR char11
ENCODING 11
SWIDTH 1200 0
DWIDTH 6 0
BBX 5 14 0 -14
BITMAP
00
20
70
A8
20
20
20
20
20
20
20
00
00
00
ENDCHAR
STARTCHAR char14
ENCODING 14
SWIDTH 2400 0
DWIDTH 12 0
BBX 11 14 0 -14
BITMAP
0000
0000
0000
0000
0000
7BC0
CE60
8420
8420
CE60
7BC0
0000
0000
0000
ENDCHAR
STARTCHAR char15
ENCODING 15
SWIDTH 1400 0
DWIDTH 7 0
BBX 6 14 0 -14
BITMAP
60
30
10
18
08
7C
CC
84
84
CC
78
00
00
00
ENDCHAR
STARTCHAR char16
ENCODING 16
SWIDTH 1800 0
DWIDTH 9 0
BBX 7 14 0 -14
BITMAP
00
00
00
7E
C0
80
80
C0
7E
00
00
00
00
00
ENDCHAR
STARTCHAR char17
ENCODING 17
SWIDTH 1800 0
DWIDTH 9 0
BBX 7 14 0 -14
BITMAP
00
00
00
FC
06
02
02
06
FC
00
00
00
00
00
ENDCHAR
STARTCHAR char18
ENCODING 18
SWIDTH 1800 0
DWIDTH 9 0
BBX 7 14 0 -14
BITMAP
7C
C6
82
82
82
82
82
82
82
82
82
00
00
00
ENDCHAR
STARTCHAR char19
ENCODING 19
SWIDTH 1800 0
DWIDTH 9 0
BBX 7 14 0 -14
BITMAP
82
82
82
82
82
82
82
82
82
C6
7C
00
00
00
ENDCHAR
STARTCHAR char20
ENCODING 20
SWIDTH 1800 0
DWIDTH 9 0
BBX 7 14 0 -14
BITMAP
00
82
82
FE
C6
44
6C
28
28
38
10
00
00
00
ENDCHAR
STARTCHAR char21
ENCODING 21
SWIDTH 1600 0
DWIDTH 8 0
BBX 6 14 0 -14
BITMAP
00
FC
04
04
04
1C
04
04
04
04
FC
00
00
00
ENDCHAR
STARTCHAR char22
ENCODING 22
SWIDTH 2200 0
DWIDTH 11 0
BBX 9 14 0 -14
BITMAP
0000
0000
3E00
6300
F780
9C80
8880
9C80
F780
6300
3E00
0000
0000
0000
ENDCHAR
STARTCHAR char23
ENCODING 23
SWIDTH 1800 0
DWIDTH 9 0
BBX 8 14 0 -14
BITMAP
00
00
00
00
24
42
FF
42
24
00
00
00
00
00
ENDCHAR
STARTCHAR char24
ENCODING 24
SWIDTH 1800 0
DWIDTH 9 0
BBX 8 14 0 -14
BITMAP
00
00
00
00
00
20
40
FF
40
20
00
00
00
00
ENDCHAR
STARTCHAR char25
ENCODING 25
SWIDTH 1800 0
DWIDTH 9 0
BBX 8 14 0 -14
BITMAP
00
00
00
00
00
04
02
FF
02
04
00
00
00
00
ENDCHAR
STARTCHAR char26
ENCODING 26
SWIDTH 1800 0
DWIDTH 9 0
BBX 6 14 1 -14
BITMAP
00
00
04
08
FC
10
20
FC
40
80
00
00
00
00
ENDCHAR
STARTCHAR char27
ENCODING 27
SWIDTH 1400 0
DWIDTH 7 0
BBX 5 14 0 -14
BITMAP
00
00
00
00
00
00
90
B0
68
48
00
00
00
00
ENDCHAR
STARTCHAR char28
ENCODING 28
SWIDTH 1200 0
DWIDTH 6 0
BBX 5 14 0 -14
BITMAP
08
10
20
40
80
40
20
10
08
00
F8
00
00
00
ENDCHAR
STARTCHAR char29
ENCODING 29
SWIDTH 1200 0
DWIDTH 6 0
BBX 5 14 0 -14
BITMAP
80
40
20
10
08
10
20
40
80
00
F8
00
00
00
ENDCHAR
STARTCHAR char30
ENCODING 30
SWIDTH 1200 0
DWIDTH 6 0
BBX 5 14 0 -14
BITMAP
00
00
00
00
00
F8
00
F8
00
F8
00
00
00
00
ENDCHAR
STARTCHAR char31
ENCODING 31
SWIDTH 1600 0
DWIDTH 8 0
BBX 7 14 0 -14
BITMAP
00
00
00
82
82
C6
44
6C
28
38
10
00
00
00
ENDCHAR
STARTCHAR char32
ENCODING 32
SWIDTH 1000 0
DWIDTH 5 0
BBX 1 14 0 -14
BITMAP
00
00
00
00
00
00
00
00
00
00
00
00
00
00
ENDCHAR
STARTCHAR char33
ENCODING 33
SWIDTH 600 0
DWIDTH 3 0
BBX 1 14 1 -14
BITMAP
00
80
80
80
80
80
80
80
00
80
80
00
00
00
ENDCHAR
STARTCHAR char34
ENCODING 34
SWIDTH 1400 0
DWIDTH 7 0
BBX 5 14 0 -14
BITMAP
D8
48
48
00
00
00
00
00
00
00
00
00
00
00
ENDCHAR
STARTCHAR char35
ENCODING 35
SWIDTH 1400 0
DWIDTH 7 0
BBX 6 14 0 -14
BITMAP
00
00
00
48
48
FC
48
48
FC
48
48
00
00
00
ENDCHAR
STARTCHAR char36
ENCODING 36
SWIDTH 1800 0
DWIDTH 9 0
BBX 7 14 0 -14
BITMAP
10
7C
D6
90
D0
7C
16
12
D6
7C
10
00
00
00
ENDCHAR
STARTCHAR char37
ENCODING 37
SWIDTH 1800 0
DWIDTH 9 0
BBX 7 14 0 -14
BITMAP
60
90
92
64
08
10
20
4C
92
12
0C
00
00
00
ENDCHAR
STARTCHAR char38
ENCODING 38
SWIDTH 2000 0
DWIDTH 10 0
BBX 8 14 0 -14
BITMAP
00
38
6C
6C
38
77
5A
9A
8A
CC
7F
30
00
00
ENDCHAR
STARTCHAR char39
ENCODING 39
SWIDTH 800 0
DWIDTH 4 0
BBX 2 14 0 -14
BITMAP
C0
40
40
00
00
00
00
00
00
00
00
00
00
00
ENDCHAR
STARTCHAR char40
ENCODING 40
SWIDTH 1000 0
DWIDTH 5 0
BBX 3 14 0 -14
BITMAP
20
60
40
C0
80
80
80
80
80
C0
40
60
20
00
ENDCHAR
STARTCHAR char41
ENCODING 41
SWIDTH 1000 0
DWIDTH 5 0
BBX 3 14 0 -14
BITMAP
80
C0
40
60
20
20
20
20
20
60
40
C0
80
00
ENDCHAR
STARTCHAR char42
ENCODING 42
SWIDTH 1800 0
DWIDTH 9 0
BBX 7 14 0 -14
BITMAP
00
00
00
00
92
54
38
FE
38
54
92
00
00
00
ENDCHAR
STARTCHAR char43
ENCODING 43
SWIDTH 1200 0
DWIDTH 6 0
BBX 5 14 0 -14
BITMAP
00
00
00
00
00
20
20
F8
20
20
00
00
00
00
ENDCHAR
STARTCHAR char44
ENCODING 44
SWIDTH 600 0
DWIDTH 3 0
BBX 2 14 0 -14
BITMAP
00
00
00
00
00
00
00
00
00
40
40
40
80
00
ENDCHAR
STARTCHAR char45
ENCODING 45
SWIDTH 1200 0
DWIDTH 6 0
BBX 5 14 0 -14
BITMAP
00
00
00
00
00
00
00
F8
00
00
00
00
00
00
ENDCHAR
STARTCHAR char46
ENCODING 46
SWIDTH 600 0
DWIDTH 3 0
BBX 2 14 0 -14
BITMAP
00
00
00
00
00
00
00
00
00
C0
C0
00
00
00
ENDCHAR
STARTCHAR char47
ENCODING 47
SWIDTH 1600 0
DWIDTH 8 0
BBX 6 14 1 -14
BITMAP
04
04
08
08
10
10
20
20
40
40
80
80
00
00
ENDCHAR
STARTCHAR char48
ENCODING 48
SWIDTH 1800 0
DWIDTH 9 0
BBX 7 14 1 -14
BITMAP
00
38
6C
C6
82
82
82
82
C6
6C
38
00
00
00
ENDCHAR
STARTCHAR char49
ENCODING 49
SWIDTH 1800 0
DWIDTH 9 0
BBX 3 14 3 -14
BITMAP
00
40
C0
40
40
40
40
40
40
40
E0
00
00
00
ENDCHAR
STARTCHAR char50
ENCODING 50
SWIDTH 1800 0
DWIDTH 9 0
BBX 7 14 0 -14
BITMAP
00
7C
C6
86
06
0C
18
30
60
C0
FE
00
00
00
ENDCHAR
STARTCHAR char51
ENCODING 51
SWIDTH 1800 0
DWIDTH 9 0
BBX 7 14 0 -14
BITMAP
00
7C
CE
86
06
3C
04
06
86
CE
7C
00
00
00
ENDCHAR
STARTCHAR char52
ENCODING 52
SWIDTH 1800 0
DWIDTH 9 0
BBX 7 14 0 -14
BITMAP
00
1C
34
24
64
44
C4
84
FE
04
04
00
00
00
ENDCHAR
STARTCHAR char53
ENCODING 53
SWIDTH 1800 0
DWIDTH 9 0
BBX 6 14 1 -14
BITMAP
00
FC
80
80
B8
CC
84
04
04
CC
78
00
00
00
ENDCHAR
STARTCHAR char54
ENCODING 54
SWIDTH 1800 0
DWIDTH 9 0
BBX 7 14 0 -14
BITMAP
00
3C
66
C0
80
BC
C6
82
82
C6
7C
00
00
00
ENDCHAR
STARTCHAR char55
ENCODING 55
SWIDTH 1800 0
DWIDTH 9 0
BBX 7 14 0 -14
BITMAP
00
FE
02
06
04
0C
08
18
10
30
20
00
00
00
ENDCHAR
STARTCHAR char56
ENCODING 56
SWIDTH 1800 0
DWIDTH 9 0
BBX 7 14 0 -14
BITMAP
00
7C
C6
C6
6C
38
7C
C6
82
C6
7C
00
00
00
ENDCHAR
STARTCHAR char57
ENCODING 57
SWIDTH 1800 0
DWIDTH 9 0
BBX 7 14 0 -14
BITMAP
00
7C
C6
82
82
C6
7E
02
06
CC
78
00
00
00
ENDCHAR
STARTCHAR char58
ENCODING 58
SWIDTH 600 0
DWIDTH 3 0
BBX 2 14 0 -14
BITMAP
00
00
00
00
C0
C0
00
00
C0
C0
00
00
00
00
ENDCHAR
STARTCHAR char59
ENCODING 59
SWIDTH 800 0
DWIDTH 4 0
BBX 3 14 0 -14
BITMAP
00
00
00
00
60
60
00
00
60
60
40
80
00
00
ENDCHAR
STARTCHAR char60
ENCODING 60
SWIDTH 1200 0
DWIDTH 6 0
BBX 5 14 0 -14
BITMAP
00
08
10
20
40
80
40
20
10
08
00
00
00
00
ENDCHAR
STARTCHAR char61
ENCODING 61
SWIDTH 1200 0
DWIDTH 6 0
BBX 5 14 0 -14
BITMAP
00
00
00
00
00
00
F8
00
F8
00
00
00
00
00
ENDCHAR
STARTCHAR char62
ENCODING 62
SWIDTH 1200 0
DWIDTH 6 0
BBX 5 14 0 -14
BITMAP
00
80
40
20
10
08
10
20
40
80
00
00
00
00
ENDCHAR
STARTCHAR char63
ENCODING 63
SWIDTH 1400 0
DWIDTH 7 0
BBX 6 14 0 -14
BITMAP
00
78
CC
84
0C
18
30
20
00
20
20
00
00
00
ENDCHAR
STARTCHAR char64
ENCODING 64
SWIDTH 1800 0
DWIDTH 9 0
BBX 8 14 0 -14
BITMAP
00
00
7E
C3
99
BD
A5
A7
BE
C0
7F
00
00
00
ENDCHAR
STARTCHAR char65
ENCODING 65
SWIDTH 2000 0
DWIDTH 10 0
BBX 8 14 0 -14
BITMAP
00
18
3C
24
66
42
7E
42
C3
81
81
00
00
00
ENDCHAR
STARTCHAR char66
ENCODING 66
SWIDTH 1800 0
DWIDTH 9 0
BBX 7 14 0 -14
BITMAP
00
FC
86
82
86
FC
86
82
82
86
FC
00
00
00
ENDCHAR
STARTCHAR char67
ENCODING 67
SWIDTH 1800 0
DWIDTH 9 0
BBX 7 14 0 -14
BITMAP
00
3C
66
C2
80
80
80
80
C2
66
3C
00
00
00
ENDCHAR
STARTCHAR char68
ENCODING 68
SWIDTH 1800 0
DWIDTH 9 0
BBX 7 14 0 -14
BITMAP
00
F8
8C
86
82
82
82
82
86
8C
F8
00
00
00
ENDCHAR
STARTCHAR char69
ENCODING 69
SWIDTH 1600 0
DWIDTH 8 0
BBX 6 14 0 -14
BITMAP
00
FC
80
80
80
F8
80
80
80
80
FC
00
00
00
ENDCHAR
STARTCHAR char70
ENCODING 70
SWIDTH 1600 0
DWIDTH 8 0
BBX 6 14 0 -14
BITMAP
00
FC
80
80
80
F8
80
80
80
80
80
00
00
00
ENDCHAR
STARTCHAR char71
ENCODING 71
SWIDTH 2000 0
DWIDTH 10 0
BBX 8 14 0 -14
BITMAP
00
3E
63
C1
80
80
8F
81
C1
63
3E
00
00
00
ENDCHAR
STARTCHAR char72
ENCODING 72
SWIDTH 1800 0
DWIDTH 9 0
BBX 7 14 0 -14
BITMAP
00
82
82
82
82
FE
82
82
82
82
82
00
00
00
ENDCHAR
STARTCHAR char73
ENCODING 73
SWIDTH 800 0
DWIDTH 4 0
BBX 1 14 1 -14
BITMAP
00
80
80
80
80
80
80
80
80
80
80
00
00
00
ENDCHAR
STARTCHAR char74
ENCODING 74
SWIDTH 1400 0
DWIDTH 7 0
BBX 5 14 0 -14
BITMAP
00
08
08
08
08
08
08
08
88
D8
70
00
00
00
ENDCHAR
STARTCHAR char75
ENCODING 75
SWIDTH 1600 0
DWIDTH 8 0
BBX 6 14 0 -14
BITMAP
00
84
8C
98
B0
E0
E0
B0
98
8C
84
00
00
00
ENDCHAR
STARTCHAR char76
ENCODING 76
SWIDTH 1600 0
DWIDTH 8 0
BBX 5 14 1 -14
BITMAP
00
80
80
80
80
80
80
80
80
80
F8
00
00
00
ENDCHAR
STARTCHAR char77
ENCODING 77
SWIDTH 2200 0
DWIDTH 11 0
BBX 9 14 0 -14
BITMAP
0000
8080
C180
C180
E380
A280
B680
9480
9C80
8880
8880
0000
0000
0000
ENDCHAR
STARTCHAR char78
ENCODING 78
SWIDTH 1800 0
DWIDTH 9 0
BBX 7 14 0 -14
BITMAP
00
C2
C2
E2
A2
B2
92
9A
8A
8E
86
00
00
00
ENDCHAR
STARTCHAR char79
ENCODING 79
SWIDTH 1800 0
DWIDTH 9 0
BBX 7 14 0 -14
BITMAP
00
38
6C
C6
82
82
82
82
C6
6C
38
00
00
00
ENDCHAR
STARTCHAR char80
ENCODING 80
SWIDTH 1600 0
DWIDTH 8 0
BBX 6 14 0 -14
BITMAP
00
F8
8C
84
84
8C
F8
80
80
80
80
00
00
00
ENDCHAR
STARTCHAR char81
ENCODING 81
SWIDTH 1800 0
DWIDTH 9 0
BBX 8 14 0 -14
BITMAP
00
38
6C
C6
82
82
82
82
C6
6C
3C
06
03
00
ENDCHAR
STARTCHAR char82
ENCODING 82
SWIDTH 1600 0
DWIDTH 8 0
BBX 6 14 0 -14
BITMAP
00
F8
8C
84
84
8C
F8
B0
98
8C
84
00
00
00
ENDCHAR
STARTCHAR char83
ENCODING 83
SWIDTH 1800 0
DWIDTH 9 0
BBX 7 14 0 -14
BITMAP
00
7C
C6
82
C0
78
0C
06
82
C6
7C
00
00
00
ENDCHAR
STARTCHAR char84
ENCODING 84
SWIDTH 1800 0
DWIDTH 9 0
BBX 7 14 0 -14
BITMAP
00
FE
10
10
10
10
10
10
10
10
10
00
00
00
ENDCHAR
STARTCHAR char85
ENCODING 85
SWIDTH 1800 0
DWIDTH 9 0
BBX 7 14 0 -14
BITMAP
00
82
82
82
82
82
82
82
82
C6
7C
00
00
00
ENDCHAR
STARTCHAR char86
ENCODING 86
SWIDTH 1800 0
DWIDTH 9 0
BBX 7 14 0 -14
BITMAP
00
82
82
C6
44
44
6C
28
38
38
10
00
00
00
ENDCHAR
STARTCHAR char87
ENCODING 87
SWIDTH 2600 0
DWIDTH 13 0
BBX 11 14 0 -14
BITMAP
0000
8020
8420
C460
4440
4E40
6EC0
2A80
2A80
3B80
1100
0000
0000
0000
ENDCHAR
STARTCHAR char88
ENCODING 88
SWIDTH 2200 0
DWIDTH 11 0
BBX 9 14 0 -14
BITMAP
0000
8080
C180
6300
3600
1C00
1C00
3600
6300
C180
8080
0000
0000
0000
ENDCHAR
STARTCHAR char89
ENCODING 89
SWIDTH 1800 0
DWIDTH 9 0
BBX 7 14 0 -14
BITMAP
00
82
C6
44
6C
28
38
10
10
10
10
00
00
00
ENDCHAR
STARTCHAR char90
ENCODING 90
SWIDTH 1600 0
DWIDTH 8 0
BBX 6 14 0 -14
BITMAP
00
FC
0C
18
10
30
20
60
40
C0
FC
00
00
00
ENDCHAR
STARTCHAR char91
ENCODING 91
SWIDTH 1000 0
DWIDTH 5 0
BBX 3 14 1 -14
BITMAP
E0
80
80
80
80
80
80
80
80
80
80
E0
00
00
ENDCHAR
STARTCHAR char92
ENCODING 92
SWIDTH 1600 0
DWIDTH 8 0
BBX 7 14 0 -14
BITMAP
80
C0
40
60
20
30
10
18
08
0C
04
06
02
00
ENDCHAR
STARTCHAR char93
ENCODING 93
SWIDTH 1000 0
DWIDTH 5 0
BBX 3 14 1 -14
BITMAP
E0
20
20
20
20
20
20
20
20
20
20
E0
00
00
ENDCHAR
STARTCHAR char95
ENCODING 95
SWIDTH 1200 0
DWIDTH 6 0
BBX 6 14 0 -14
BITMAP
00
00
00
00
00
00
00
00
00
00
00
FC
00
00
ENDCHAR
STARTCHAR char96
ENCODING 96
SWIDTH 600 0
DWIDTH 3 0
BBX 2 14 0 -14
BITMAP
00
C0
C0
40
40
00
00
00
00
00
00
00
00
00
ENDCHAR
STARTCHAR char97
ENCODING 97
SWIDTH 1600 0
DWIDTH 8 0
BBX 6 14 0 -14
BITMAP
00
00
00
00
70
88
08
78
88
88
74
00
00
00
ENDCHAR
STARTCHAR char98
ENCODING 98
SWIDTH 1600 0
DWIDTH 8 0
BBX 6 14 0 -14
BITMAP
00
80
80
80
B8
C4
84
84
84
C4
B8
00
00
00
ENDCHAR
STARTCHAR char99
ENCODING 99
SWIDTH 1600 0
DWIDTH 8 0
BBX 6 14 0 -14
BITMAP
00
00
00
00
38
44
80
80
80
44
38
00
00
00
ENDCHAR
STARTCHAR char100
ENCODING 100
SWIDTH 1600 0
DWIDTH 8 0
BBX 6 14 0 -14
BITMAP
00
04
04
04
74
8C
84
84
84
8C
74
00
00
00
ENDCHAR
STARTCHAR char101
ENCODING 101
SWIDTH 1600 0
DWIDTH 8 0
BBX 6 14 0 -14
BITMAP
00
00
00
00
78
84
84
FC
80
84
78
00
00
00
ENDCHAR
STARTCHAR char102
ENCODING 102
SWIDTH 1200 0
DWIDTH 6 0
BBX 4 14 0 -14
BITMAP
00
30
40
40
F0
40
40
40
40
40
40
00
00
00
ENDCHAR
STARTCHAR char103
ENCODING 103
SWIDTH 1600 0
DWIDTH 8 0
BBX 6 14 0 -14
BITMAP
00
00
00
00
7C
88
88
F0
40
78
84
84
78
00
ENDCHAR
STARTCHAR char104
ENCODING 104
SWIDTH 1400 0
DWIDTH 7 0
BBX 5 14 0 -14
BITMAP
00
80
80
80
B0
D8
88
88
88
88
88
00
00
00
ENDCHAR
STARTCHAR char105
ENCODING 105
SWIDTH 800 0
DWIDTH 4 0
BBX 1 14 1 -14
BITMAP
00
80
80
00
80
80
80
80
80
80
80
00
00
00
ENDCHAR
STARTCHAR char106
ENCODING 106
SWIDTH 1000 0
DWIDTH 5 0
BBX 3 14 0 -14
BITMAP
00
20
20
00
20
20
20
20
20
20
20
60
C0
00
ENDCHAR
STARTCHAR char107
ENCODING 107
SWIDTH 1400 0
DWIDTH 7 0
BBX 6 14 0 -14
BITMAP
00
80
80
88
90
A0
C0
A0
90
88
84
00
00
00
ENDCHAR
STARTCHAR char108
ENCODING 108
SWIDTH 800 0
DWIDTH 4 0
BBX 1 14 1 -14
BITMAP
00
80
80
80
80
80
80
80
80
80
80
00
00
00
ENDCHAR
STARTCHAR char109
ENCODING 109
SWIDTH 1800 0
DWIDTH 9 0
BBX 7 14 0 -14
BITMAP
00
00
00
00
A4
DA
92
92
92
92
92
00
00
00
ENDCHAR
STARTCHAR char110
ENCODING 110
SWIDTH 1400 0
DWIDTH 7 0
BBX 5 14 0 -14
BITMAP
00
00
00
00
B0
C8
88
88
88
88
88
00
00
00
ENDCHAR
STARTCHAR char111
ENCODING 111
SWIDTH 1600 0
DWIDTH 8 0
BBX 6 14 0 -14
BITMAP
00
00
00
30
78
CC
84
84
CC
78
30
00
00
00
ENDCHAR
STARTCHAR char112
ENCODING 112
SWIDTH 1600 0
DWIDTH 8 0
BBX 6 14 0 -14
BITMAP
00
00
00
00
B8
C4
84
84
84
C4
B8
80
80
00
ENDCHAR
STARTCHAR char113
ENCODING 113
SWIDTH 1600 0
DWIDTH 8 0
BBX 6 14 0 -14
BITMAP
00
00
00
00
74
8C
84
84
84
8C
74
04
04
00
ENDCHAR
STARTCHAR char114
ENCODING 114
SWIDTH 1200 0
DWIDTH 6 0
BBX 4 14 0 -14
BITMAP
00
00
00
00
B0
E0
C0
80
80
80
80
00
00
00
ENDCHAR
STARTCHAR char115
ENCODING 115
SWIDTH 1400 0
DWIDTH 7 0
BBX 5 14 0 -14
BITMAP
00
00
00
00
70
88
C0
70
18
88
70
00
00
00
ENDCHAR
STARTCHAR char116
ENCODING 116
SWIDTH 1000 0
DWIDTH 5 0
BBX 3 14 0 -14
BITMAP
00
40
40
40
E0
40
40
40
40
40
60
00
00
00
ENDCHAR
STARTCHAR char117
ENCODING 117
SWIDTH 1600 0
DWIDTH 8 0
BBX 6 14 0 -14
BITMAP
00
00
00
00
84
84
84
84
84
C4
B8
00
00
00
ENDCHAR
STARTCHAR char118
ENCODING 118
SWIDTH 1800 0
DWIDTH 9 0
BBX 7 14 0 -14
BITMAP
00
00
00
00
82
C6
44
6C
28
38
10
00
00
00
ENDCHAR
STARTCHAR char119
ENCODING 119
SWIDTH 2200 0
DWIDTH 11 0
BBX 9 14 0 -14
BITMAP
0000
0000
0000
0000
8880
8880
DD80
5D00
7700
2200
2200
0000
0000
0000
ENDCHAR
STARTCHAR char120
ENCODING 120
SWIDTH 1800 0
DWIDTH 9 0
BBX 7 14 0 -14
BITMAP
00
00
82
C6
6C
38
10
38
6C
C6
82
00
00
00
ENDCHAR
STARTCHAR char121
ENCODING 121
SWIDTH 1800 0
DWIDTH 9 0
BBX 7 14 0 -14
BITMAP
00
00
00
00
82
C6
44
6C
38
38
10
30
E0
00
ENDCHAR
STARTCHAR char122
ENCODING 122
SWIDTH 1600 0
DWIDTH 8 0
BBX 6 14 0 -14
BITMAP
00
00
00
00
FC
0C
18
30
60
C0
FC
00
00
00
ENDCHAR
STARTCHAR char123
ENCODING 123
SWIDTH 1000 0
DWIDTH 5 0
BBX 4 14 0 -14
BITMAP
30
60
60
20
60
C0
C0
60
20
60
60
30
00
00
ENDCHAR
STARTCHAR char124
ENCODING 124
SWIDTH 800 0
DWIDTH 4 0
BBX 1 14 1 -14
BITMAP
80
80
80
80
80
80
80
80
80
80
80
80
80
00
ENDCHAR
STARTCHAR char125
ENCODING 125
SWIDTH 1200 0
DWIDTH 6 0
BBX 4 14 1 -14
BITMAP
C0
60
60
40
60
30
30
60
40
60
60
C0
00
00
ENDCHAR
STARTCHAR char126
ENCODING 126
SWIDTH 1400 0
DWIDTH 7 0
BBX 5 14 0 -14
BITMAP
00
00
00
00
00
00
90
B0
68
48
00
00
00
00
ENDCHAR
ENDFONT
